<svg width="71" height="70" viewBox="0 0 71 70" fill="none" xmlns="http://www.w3.org/2000/svg">
<rect width="71" height="70" fill="#E5E5E5"/>
<g id="medical-universal" clip-path="url(#clip0_0_1)">
<rect width="1440" height="6865" transform="translate(-236 -1123)" fill="white"/>
<g id="1/4 Layout 3">
<rect width="1440" height="782" transform="translate(-236 -394)" fill="white"/>
<g id="container">
<g id="row">
<g id="col-md-3">
<g id="card" filter="url(#filter0_d_0_1)">
<rect width="238" height="288" transform="translate(-40.5 -36)" fill="white"/>
<g id="icon cool-icon-15" clip-path="url(#clip1_0_1)">
<g id="002-consulting">
<g id="Frame" clip-path="url(#clip2_0_1)">
<g id="Frame_2" clip-path="url(#clip3_0_1)">
<g id="Frame_3" clip-path="url(#clip4_0_1)">
<path id="Vector" d="M52.375 64.25V67.625C52.375 68.2438 51.8688 68.75 51.25 68.75H19.75C19.1312 68.75 18.625 68.2438 18.625 67.625V64.25H28.75H42.25H52.375Z" fill="#969FAA"/>
</g>
<g id="Frame_4" clip-path="url(#clip5_0_1)">
<path id="Vector_2" d="M28.75 59.75V64.25H18.625V62C18.625 60.7625 19.6375 59.75 20.875 59.75H28.75Z" fill="#969FAA"/>
</g>
<g id="Frame_5" clip-path="url(#clip6_0_1)">
<path id="Vector_3" d="M52.375 62V64.25H42.25V59.75H50.125C51.3625 59.75 52.375 60.7625 52.375 62Z" fill="#969FAA"/>
</g>
<g id="Frame_6" clip-path="url(#clip7_0_1)">
<path id="Vector_4" d="M42.25 59.75V64.25H28.75V59.75V55.25H42.25V59.75Z" fill="#AAB2BD"/>
</g>
<g id="Frame_7" clip-path="url(#clip8_0_1)">
<path id="Vector_5" d="M67 46.25V53C67 54.2375 65.9875 55.25 64.75 55.25H42.25H28.75H4C2.7625 55.25 1.75 54.2375 1.75 53V46.25H6.25H24.25H42.25H67Z" fill="#CCD1D9"/>
</g>
<g id="Frame_8" clip-path="url(#clip9_0_1)">
<path id="Vector_6" d="M67 46.25H1.75V12.5C1.75 11.2569 2.75688 10.25 4 10.25H67V46.25Z" fill="#69D6F4"/>
</g>
<g id="Frame_9" clip-path="url(#clip10_0_1)">
<path id="Vector_7" d="M49 37.25H53.5V41.75H49V37.25Z" fill="#FF826E"/>
</g>
<g id="Frame_10" clip-path="url(#clip11_0_1)">
<path id="Vector_8" d="M58 28.25H62.5V32.75H58V28.25Z" fill="#FF826E"/>
</g>
<g id="Frame_11" clip-path="url(#clip12_0_1)">
<path id="Vector_9" d="M58 37.25H62.5V41.75H58V37.25Z" fill="#B4DD7F"/>
</g>
<g id="Frame_12" clip-path="url(#clip13_0_1)">
<path id="Vector_10" d="M49 28.25H53.5V32.75H49V28.25Z" fill="#B4DD7F"/>
</g>
<g id="Frame_13" clip-path="url(#clip14_0_1)">
<path id="Vector_11" d="M16.375 17C16.375 17.5625 16.4312 18.1137 16.5437 18.6425L16.51 18.6537L15.7 18.17C13.3262 16.7412 11.875 14.1875 11.875 11.42V11.375C11.875 10.9925 11.8975 10.6212 11.9425 10.25C12.4938 5.1875 16.7912 1.25 22 1.25H35.5C36.1187 1.25 36.6812 1.4975 37.0863 1.91375C37.5025 2.31875 37.75 2.88125 37.75 3.5C37.75 5.21 37.12 6.79625 36.0513 8.01125C35.095 9.125 33.7675 9.92375 32.2375 10.2275L32.125 10.25H28.1875C25.5775 10.25 22.9675 9.92375 20.425 9.29375C19.975 9.18125 19.5137 9.125 19.0525 9.125C17.5675 9.125 16.375 10.3175 16.375 11.8025V17Z" fill="#B27946"/>
</g>
<g id="Frame_14" clip-path="url(#clip15_0_1)">
<path id="Vector_12" d="M36.5577 10.25C36.6027 10.6212 36.6252 10.9925 36.6252 11.375V11.42C36.6252 14.1875 35.174 16.7412 32.8002 18.17L31.9902 18.6537C32.0802 18.1925 32.1252 17.72 32.1252 17.2362V10.25L32.2377 10.2275C33.7677 9.92373 35.0952 9.12498 36.0515 8.01123C36.299 8.73123 36.479 9.47373 36.5577 10.25Z" fill="#B27946"/>
</g>
<g id="Frame_15" clip-path="url(#clip16_0_1)">
<path id="Vector_13" d="M33.79 27.9688L33.25 27.8788L28.75 27.125L24.25 33.875L19.75 27.125L15.25 27.8788L14.71 27.9688C9.8275 28.7788 6.25 32.9975 6.25 37.9475V46.25H24.25H42.25V37.9475C42.25 32.9975 38.6725 28.7788 33.79 27.9688Z" fill="#E6E9ED"/>
</g>
<g id="Frame_16" clip-path="url(#clip17_0_1)">
<path id="Vector_14" d="M33.25 41.75C34.4926 41.75 35.5 40.7426 35.5 39.5C35.5 38.2574 34.4926 37.25 33.25 37.25C32.0074 37.25 31 38.2574 31 39.5C31 40.7426 32.0074 41.75 33.25 41.75Z" fill="#FCD770"/>
</g>
<g id="Frame_17" clip-path="url(#clip18_0_1)">
<path id="Vector_15" d="M20.5487 23.9526C21.6625 24.5376 22.9338 24.8751 24.2838 24.8751H24.4862C25.735 24.8751 26.9275 24.5714 27.9737 24.0314L28.75 27.1251L24.25 33.8751L19.75 27.1251L20.5487 23.9526Z" fill="#F0D0B4"/>
</g>
<g id="Frame_18" clip-path="url(#clip19_0_1)">
<path id="Vector_16" d="M20.5487 23.9525C18.5237 22.8725 17.0387 20.9487 16.5437 18.6425C16.4312 18.1137 16.375 17.5625 16.375 17V11.8025C16.375 10.3175 17.5675 9.125 19.0525 9.125C19.5137 9.125 19.975 9.18125 20.425 9.29375C22.9675 9.92375 25.5775 10.25 28.1875 10.25H32.125V17.2362C32.125 17.72 32.08 18.1925 31.99 18.6537C31.5512 21.005 30.0325 22.9738 27.9737 24.0312C26.9275 24.5712 25.735 24.875 24.4862 24.875H24.2838C22.9338 24.875 21.6625 24.5375 20.5487 23.9525Z" fill="#F0D0B4"/>
</g>
<g id="Frame_19" clip-path="url(#clip20_0_1)">
<path id="Vector_17" d="M69.25 3.5V21.5C69.25 22.7375 68.2375 23.75 67 23.75H47.875L44.95 27.6537C44.6688 28.025 44.2188 28.25 43.7463 28.25C42.925 28.25 42.25 27.575 42.25 26.7537V10.25V3.5C42.25 2.2625 43.2625 1.25 44.5 1.25H67C68.2375 1.25 69.25 2.2625 69.25 3.5Z" fill="#E6E9ED"/>
</g>
<g id="Frame_20" clip-path="url(#clip21_0_1)">
<path id="Vector_18" d="M62.5 11.375V13.625C62.5 14.2437 61.9937 14.75 61.375 14.75H58V18.125C58 18.7437 57.4937 19.25 56.875 19.25H54.625C54.0062 19.25 53.5 18.7437 53.5 18.125V14.75H50.125C49.5062 14.75 49 14.2437 49 13.625V11.375C49 10.7562 49.5062 10.25 50.125 10.25H53.5V6.875C53.5 6.25625 54.0062 5.75 54.625 5.75H56.875C57.4937 5.75 58 6.25625 58 6.875V10.25H61.375C61.9937 10.25 62.5 10.7562 62.5 11.375Z" fill="#FCD770"/>
</g>
</g>
<g id="Frame_21" clip-path="url(#clip22_0_1)">
<path id="Vector_19" d="M20.875 15.875C21.4963 15.875 22 15.3713 22 14.75C22 14.1287 21.4963 13.625 20.875 13.625C20.2537 13.625 19.75 14.1287 19.75 14.75C19.75 15.3713 20.2537 15.875 20.875 15.875Z" fill="black"/>
<path id="Vector_20" d="M27.625 15.875C28.2463 15.875 28.75 15.3713 28.75 14.75C28.75 14.1287 28.2463 13.625 27.625 13.625C27.0037 13.625 26.5 14.1287 26.5 14.75C26.5 15.3713 27.0037 15.875 27.625 15.875Z" fill="black"/>
<path id="Vector_21" d="M26.4999 17.8596C26.0713 18.7168 25.2095 19.2501 24.2499 19.2501C23.2903 19.2501 22.4285 18.7168 21.9999 17.8596L21.8818 17.6222L19.8691 18.6291L19.9873 18.8665C20.7995 20.491 22.433 21.5001 24.2499 21.5001C26.0668 21.5001 27.7003 20.491 28.5125 18.8653L28.6306 18.628L26.618 17.6211L26.4999 17.8596Z" fill="black"/>
<path id="Vector_22" d="M61.375 9.125H59.125V6.875C59.125 5.63412 58.1159 4.625 56.875 4.625H54.625C53.3841 4.625 52.375 5.63412 52.375 6.875V9.125H50.125C48.8841 9.125 47.875 10.1341 47.875 11.375V13.625C47.875 14.8659 48.8841 15.875 50.125 15.875H52.375V18.125C52.375 19.3659 53.3841 20.375 54.625 20.375H56.875C58.1159 20.375 59.125 19.3659 59.125 18.125V15.875H61.375C62.6159 15.875 63.625 14.8659 63.625 13.625V11.375C63.625 10.1341 62.6159 9.125 61.375 9.125ZM61.375 13.625H56.875V18.125H54.625V13.625H50.125V11.375H54.625V6.875H56.875V11.375L61.375 11.3784V13.625Z" fill="black"/>
<path id="Vector_23" d="M67 0.125H44.5C42.6393 0.125 41.125 1.63925 41.125 3.5V9.125H37.5149C37.4553 8.83025 37.3844 8.53887 37.3011 8.25087C38.2945 6.911 38.875 5.2595 38.875 3.5C38.875 1.63925 37.3607 0.125 35.5 0.125H22C16.5764 0.125 12.0381 3.98263 10.9818 9.125H4C2.13925 9.125 0.625 10.6392 0.625 12.5V53C0.625 54.8607 2.13925 56.375 4 56.375H27.625V58.625H20.875C19.0142 58.625 17.5 60.1393 17.5 62V67.625C17.5 68.8659 18.5091 69.875 19.75 69.875H51.25C52.4909 69.875 53.5 68.8659 53.5 67.625V62C53.5 60.1393 51.9857 58.625 50.125 58.625H43.375V56.375H64.75C66.6107 56.375 68.125 54.8607 68.125 53V24.668C69.4311 24.2022 70.375 22.9648 70.375 21.5V3.5C70.375 1.63925 68.8607 0.125 67 0.125ZM41.125 11.375V26.7504C41.125 28.1971 42.3029 29.375 43.7496 29.375C44.5709 29.375 45.3561 28.9824 45.8489 28.3254L48.4375 24.875H65.875V45.125H43.375V37.952C43.375 32.4294 39.4217 27.7629 33.9745 26.855L29.6624 26.1361L29.2709 24.569C31.0866 23.3799 32.4287 21.5371 32.9744 19.376L33.3805 19.133C36.076 17.5164 37.75 14.5599 37.75 11.375H41.125ZM14.125 35.1136C11.5611 35.6368 9.625 37.9092 9.625 40.625V42.875H11.875V40.625C11.875 38.7643 13.3892 37.25 15.25 37.25C17.1108 37.25 18.625 38.7643 18.625 40.625V42.875H20.875V40.625C20.875 37.9092 18.9389 35.6368 16.375 35.1136V28.8283L19.2179 28.3546L23.125 34.2159V45.125H7.375V37.952C7.375 33.7996 10.1706 30.2525 14.125 29.2389V35.1136ZM24.4862 23.75H24.2882C20.5454 23.75 17.5 20.7226 17.5 17V11.8003C17.5 10.9452 18.1953 10.25 19.0503 10.25C19.4226 10.25 19.7939 10.2961 20.155 10.3861C22.7808 11.042 25.4841 11.375 28.1886 11.375H31V17.2362C31 20.8284 28.0784 23.75 24.4862 23.75ZM24.2882 26H24.4862C25.4335 26 26.3447 25.8448 27.1997 25.5646L27.5373 26.9146L24.25 31.8466L20.9616 26.9146L21.316 25.4994C22.2475 25.8234 23.2476 26 24.2882 26ZM25.375 34.2159L29.2821 28.3546L32.125 28.8283V36.3331C30.8189 36.7989 29.875 38.0364 29.875 39.5011C29.875 41.3619 31.3892 42.8761 33.25 42.8761C35.1107 42.8761 36.625 41.3619 36.625 39.5011C36.625 38.0364 35.6811 36.7989 34.375 36.3331V29.2389C38.3294 30.2525 41.125 33.7996 41.125 37.952V45.125H25.375V34.2159ZM34.375 39.5C34.375 40.1199 33.8699 40.625 33.25 40.625C32.6301 40.625 32.125 40.1199 32.125 39.5C32.125 38.8801 32.6301 38.375 33.25 38.375C33.8699 38.375 34.375 38.8801 34.375 39.5ZM35.3988 10.0745C35.4618 10.5121 35.5 10.9576 35.5 11.4166C35.5 13.3392 34.6551 15.1595 33.25 16.4274V11.1297C34.0285 10.8879 34.7474 10.5234 35.3988 10.0745ZM22 2.375H35.5C36.1199 2.375 36.625 2.88013 36.625 3.5C36.625 6.22475 34.6855 8.59062 32.0136 9.125H28.1886C25.6664 9.125 23.1475 8.8145 20.7006 8.20362C20.1617 8.06862 19.606 8 19.0503 8C16.9555 8 15.25 9.7055 15.25 11.8003V16.4443C13.8393 15.1753 13 13.3347 13 11.3739C13 6.41262 17.0376 2.375 22 2.375ZM4 11.375H10.7522C10.7522 11.3885 10.75 11.402 10.75 11.4166C10.75 14.5599 12.424 17.5164 15.1195 19.1341L15.5796 19.4097C16.1635 21.5011 17.491 23.2843 19.2561 24.4678L18.8388 26.1372L14.5266 26.8561C9.07825 27.7629 5.125 32.4294 5.125 37.952V45.125H2.875V12.5C2.875 11.8801 3.38013 11.375 4 11.375ZM20.875 60.875H27.625V63.125H19.75V62C19.75 61.3801 20.2551 60.875 20.875 60.875ZM19.75 67.625V65.375H51.25V67.625H19.75ZM50.125 60.875C50.7449 60.875 51.25 61.3801 51.25 62V63.125H43.375V60.875H50.125ZM41.125 63.125H29.875V56.375H41.125V63.125ZM64.75 54.125H4C3.38013 54.125 2.875 53.6199 2.875 53V47.375H65.875V53C65.875 53.6199 65.3699 54.125 64.75 54.125ZM68.125 21.5C68.125 22.1199 67.6199 22.625 67 22.625H47.3125L44.05 26.9754C43.8565 27.2341 43.3761 27.0744 43.375 26.7493V3.5C43.375 2.88013 43.8801 2.375 44.5 2.375H67C67.6199 2.375 68.125 2.88013 68.125 3.5V21.5Z" fill="black"/>
<path id="Vector_24" d="M63.625 27.125H56.875V33.875H63.625V27.125ZM61.375 31.625H59.125V29.375H61.375V31.625Z" fill="black"/>
<path id="Vector_25" d="M63.625 36.125H56.875V42.875H63.625V36.125ZM61.375 40.625H59.125V38.375H61.375V40.625Z" fill="black"/>
<path id="Vector_26" d="M54.625 27.125H47.875V33.875H54.625V27.125ZM52.375 31.625H50.125V29.375H52.375V31.625Z" fill="black"/>
<path id="Vector_27" d="M54.625 36.125H47.875V42.875H54.625V36.125ZM52.375 40.625H50.125V38.375H52.375V40.625Z" fill="black"/>
<path id="Vector_28" d="M29.875 49.625H36.625V51.875H29.875V49.625Z" fill="black"/>
<path id="Vector_29" d="M38.875 49.625H41.125V51.875H38.875V49.625Z" fill="black"/>
</g>
</g>
</g>
</g>
</g>
</g>
</g>
</g>
</g>
</g>
<defs>
<filter id="filter0_d_0_1" x="-59.5" y="-42" width="276" height="326" filterUnits="userSpaceOnUse" color-interpolation-filters="sRGB">
<feFlood flood-opacity="0" result="BackgroundImageFix"/>
<feColorMatrix in="SourceAlpha" type="matrix" values="0 0 0 0 0 0 0 0 0 0 0 0 0 0 0 0 0 0 127 0" result="hardAlpha"/>
<feOffset dy="13"/>
<feGaussianBlur stdDeviation="9.5"/>
<feColorMatrix type="matrix" values="0 0 0 0 0 0 0 0 0 0 0 0 0 0 0 0 0 0 0.07 0"/>
<feBlend mode="normal" in2="BackgroundImageFix" result="effect1_dropShadow_0_1"/>
<feBlend mode="normal" in="SourceGraphic" in2="effect1_dropShadow_0_1" result="shape"/>
</filter>
<clipPath id="clip0_0_1">
<rect width="1440" height="6865" fill="white" transform="translate(-236 -1123)"/>
</clipPath>
<clipPath id="clip1_0_1">
<rect width="72" height="72" fill="white" transform="translate(-0.5 -1)"/>
</clipPath>
<clipPath id="clip2_0_1">
<rect width="69.75" height="69.75" fill="white" transform="translate(0.625 0.125)"/>
</clipPath>
<clipPath id="clip3_0_1">
<rect width="67.5" height="67.5" fill="white" transform="translate(1.75 1.25)"/>
</clipPath>
<clipPath id="clip4_0_1">
<rect width="33.75" height="4.5" fill="white" transform="translate(18.625 64.25)"/>
</clipPath>
<clipPath id="clip5_0_1">
<rect width="10.125" height="4.5" fill="white" transform="translate(18.625 59.75)"/>
</clipPath>
<clipPath id="clip6_0_1">
<rect width="10.125" height="4.5" fill="white" transform="translate(42.25 59.75)"/>
</clipPath>
<clipPath id="clip7_0_1">
<rect width="13.5" height="9" fill="white" transform="translate(28.75 55.25)"/>
</clipPath>
<clipPath id="clip8_0_1">
<rect width="65.25" height="9" fill="white" transform="translate(1.75 46.25)"/>
</clipPath>
<clipPath id="clip9_0_1">
<rect width="65.25" height="36" fill="white" transform="translate(1.75 10.25)"/>
</clipPath>
<clipPath id="clip10_0_1">
<rect width="4.5" height="4.5" fill="white" transform="translate(49 37.25)"/>
</clipPath>
<clipPath id="clip11_0_1">
<rect width="4.5" height="4.5" fill="white" transform="translate(58 28.25)"/>
</clipPath>
<clipPath id="clip12_0_1">
<rect width="4.5" height="4.5" fill="white" transform="translate(58 37.25)"/>
</clipPath>
<clipPath id="clip13_0_1">
<rect width="4.5" height="4.5" fill="white" transform="translate(49 28.25)"/>
</clipPath>
<clipPath id="clip14_0_1">
<rect width="25.875" height="17.4037" fill="white" transform="translate(11.875 1.25)"/>
</clipPath>
<clipPath id="clip15_0_1">
<rect width="4.63499" height="10.6425" fill="white" transform="translate(31.9902 8.01123)"/>
</clipPath>
<clipPath id="clip16_0_1">
<rect width="36" height="19.125" fill="white" transform="translate(6.25 27.125)"/>
</clipPath>
<clipPath id="clip17_0_1">
<rect width="4.5" height="4.5" fill="white" transform="translate(31 37.25)"/>
</clipPath>
<clipPath id="clip18_0_1">
<rect width="9" height="9.9225" fill="white" transform="translate(19.75 23.9526)"/>
</clipPath>
<clipPath id="clip19_0_1">
<rect width="15.75" height="15.75" fill="white" transform="translate(16.375 9.125)"/>
</clipPath>
<clipPath id="clip20_0_1">
<rect width="27" height="27" fill="white" transform="translate(42.25 1.25)"/>
</clipPath>
<clipPath id="clip21_0_1">
<rect width="13.5" height="13.5" fill="white" transform="translate(49 5.75)"/>
</clipPath>
<clipPath id="clip22_0_1">
<rect width="69.75" height="69.75" fill="white" transform="translate(0.625 0.125)"/>
</clipPath>
</defs>
</svg>
